HIERARCHY
ROOT Hips
{
 OFFSET 0.000000 0.000000 0.000000
 CHANNELS 6 Xposition Yposition Zposition Yrotation Xrotation Zrotation
 JOINT Chest
 {
  OFFSET 0.000000 106.808192 -0.167805
  CHANNELS 3 Yrotation Xrotation Zrotation
  JOINT Chest2
  {
   OFFSET 0.000000 103.692380 0.304812
   CHANNELS 3 Yrotation Xrotation Zrotation
   JOINT Chest3
   {
    OFFSET 0.000000 93.681247 0.000000
    CHANNELS 3 Yrotation Xrotation Zrotation
    JOINT Chest4
    {
     OFFSET 0.000000 93.681247 0.000000
     CHANNELS 3 Yrotation Xrotation Zrotation
     JOINT Neck
     {
      OFFSET 0.000000 131.507688 0.000000
      CHANNELS 3 Yrotation Xrotation Zrotation
      JOINT Head
      {
       OFFSET 0.000000 87.322139 0.724856
       CHANNELS 3 Yrotation Xrotation Zrotation
       End Site
       {
        OFFSET 0.000000 165.221580 0.378607
       }
      }
     }
     JOINT RightCollar
     {
      OFFSET -29.307334 73.569133 0.000000
      CHANNELS 3 Yrotation Xrotation Zrotation
      JOINT RightShoulder
      {
       OFFSET -143.043043 0.000000 0.000000
       CHANNELS 3 Yrotation Xrotation Zrotation
       JOINT RightElbow
       {
        OFFSET -306.262921 0.000000 0.000000
        CHANNELS 3 Yrotation Xrotation Zrotation
        JOINT RightWrist
        {
         OFFSET -250.411670 0.000000 -0.000000
         CHANNELS 3 Yrotation Xrotation Zrotation
         JOINT Prop1
         {
          OFFSET -35.763107 -10.218031 -20.436061
          CHANNELS 3 Yrotation Xrotation Zrotation
          End Site
          {
           OFFSET -764.579746 -313.937919 238.186906
          }
         }
         JOINT Prop2
         {
          OFFSET -35.763107 -10.218031 -20.436061
          CHANNELS 3 Yrotation Xrotation Zrotation
          End Site
          {
           OFFSET -697.048315 -219.073524 266.750341
          }
         }
         End Site
         {
          OFFSET -186.989962 0.000000 0.000000
         }
        }
       }
      }
     }
     JOINT LeftCollar
     {
      OFFSET 29.307334 73.569133 0.000000
      CHANNELS 3 Yrotation Xrotation Zrotation
      JOINT LeftShoulder
      {
       OFFSET 143.043043 0.000000 0.000000
       CHANNELS 3 Yrotation Xrotation Zrotation
       JOINT LeftElbow
       {
        OFFSET 306.262921 0.000000 0.000000
        CHANNELS 3 Yrotation Xrotation Zrotation
        JOINT LeftWrist
        {
         OFFSET 250.411670 0.000000 -0.000000
         CHANNELS 3 Yrotation Xrotation Zrotation
         End Site
         {
          OFFSET 186.989962 0.000000 0.000000
         }
        }
       }
      }
     }
    }
   }
  }
 }
 JOINT RightHip
 {
  OFFSET -88.075452 0.822242 0.083902
  CHANNELS 3 Yrotation Xrotation Zrotation
  JOINT RightKnee
  {
   OFFSET 0.000000 -484.915680 0.065615
   CHANNELS 3 Yrotation Xrotation Zrotation
   JOINT RightAnkle
   {
    OFFSET 0.000000 -392.968678 0.400036
    CHANNELS 3 Yrotation Xrotation Zrotation
    JOINT RightToe
    {
     OFFSET 0.000000 -71.234509 153.966940
     CHANNELS 3 Yrotation Xrotation Zrotation
     End Site
     {
      OFFSET 0.000000 -15.147291 62.724420
     }
    }
   }
  }
 }
 JOINT LeftHip
 {
  OFFSET 88.075452 0.822242 0.083902
  CHANNELS 3 Yrotation Xrotation Zrotation
  JOINT LeftKnee
  {
   OFFSET 0.000000 -484.915680 0.065615
   CHANNELS 3 Yrotation Xrotation Zrotation
   JOINT LeftAnkle
   {
    OFFSET 0.000000 -392.968678 0.400036
    CHANNELS 3 Yrotation Xrotation Zrotation
    JOINT LeftToe
    {
     OFFSET 0.000000 -71.234509 153.966940
     CHANNELS 3 Yrotation Xrotation Zrotation
     End Site
     {
      OFFSET 0.000000 -15.147291 62.724420
     }
    }
   }
  }
 }
}
MOTION
Frames: 13
Frame Time: 0.010000
-822.923675 951.354871 -183.380993 -89.075413 -8.726675 2.808032 -0.040882 -0.025784 -0.009893 0.000000 0.000000 0.000000 0.000000 0.000000 0.000000 0.000000 0.000000 0.000000 0.000000 12.665069 0.000000 0.000000 -12.665069 -0.000000 0.000000 0.000000 0.000000 0.001632 -0.003015 80.215444 0.000000 -0.000000 0.000000 -0.002625 -0.000904 -0.001095 77.207098 -21.494801 -42.585139 85.129187 -23.910429 30.247789 0.000000 0.000000 0.000000 0.001632 -0.003015 -80.212739 0.000000 0.000000 0.000000 0.002170 0.001731 -0.001095 5.727099 -19.056179 -10.982180 -24.024901 35.188487 0.665040 -8.871761 -7.348071 2.897834 -0.177849 5.291271 2.693437 1.067258 10.903931 -6.480758 2.404331 9.335680 -0.236894 5.441154 -11.359808 2.323968 -0.024792 -0.016205 -0.145343
-831.452296 950.582217 -184.161534 -89.103055 -8.690011 2.779773 -0.047867 -0.021796 -0.005047 0.000000 0.000000 0.000000 0.000000 0.000000 0.000000 0.000000 0.000000 0.000000 -0.000000 12.665069 -0.000000 0.000000 -12.665069 -0.000000 0.000000 0.000000 0.000000 0.001884 -0.002114 80.215541 0.000000 -0.000000 0.000000 -0.001949 -0.001207 -0.001171 79.696306 -19.593051 -42.244363 85.499063 -24.009345 30.396637 0.000000 0.000000 0.000000 0.001884 -0.002114 -80.212642 0.000000 0.000000 0.000000 0.001432 0.001790 -0.001171 5.416688 -19.466913 -10.810458 -23.321719 32.581852 -0.407940 -8.896667 -6.982988 2.257675 -0.184009 5.415025 2.719119 1.319384 11.601502 -6.390181 2.334499 9.006794 -0.106928 5.244110 -11.768437 2.184657 -0.025532 0.013481 -0.147952
-840.083174 949.719788 -185.133507 -89.097295 -8.650822 2.743919 -0.056918 -0.012376 0.011952 0.000000 0.000000 0.000000 0.000000 0.000000 0.000000 0.000000 0.000000 0.000000 0.000000 12.665069 0.000000 0.000000 -12.665069 -0.000000 0.000000 0.000000 0.000000 0.000356 -0.002546 80.215065 0.000000 -0.000000 0.000000 -0.002075 0.000053 -0.000791 82.084058 -17.695973 -41.504451 85.880580 -24.100003 30.532223 0.000000 0.000000 0.000000 0.000356 -0.002546 -80.213118 0.000000 0.000000 0.000000 0.001973 0.000645 -0.000791 4.737096 -19.807256 -10.473313 -22.491698 29.899328 -1.547388 -8.685230 -6.782201 1.512459 -0.189688 5.621041 2.830122 1.648973 12.319736 -6.264004 2.227059 8.649529 0.037428 5.074745 -12.154876 2.015946 -0.024588 0.030670 -0.150450
-849.040090 948.773239 -186.271843 -89.055818 -8.682809 2.662918 -0.116270 0.062813 0.070429 0.000000 0.000000 0.000000 0.000000 0.000000 0.000000 0.000000 0.000000 0.000000 0.000000 12.665069 0.000000 0.000000 -12.665069 -0.000000 0.000000 0.000000 0.000000 0.000865 -0.002380 80.214951 0.000000 0.000000 0.000000 -0.002014 -0.000358 -0.000696 84.424067 -15.796339 -40.555276 86.269185 -24.190113 30.704455 0.000000 0.000000 0.000000 0.000865 -0.002380 -80.213232 0.000000 0.000000 0.000000 0.001778 0.001012 -0.000696 3.742285 -19.917717 -9.945866 -21.388361 27.087472 -2.602749 -8.299221 -6.798666 0.607402 -0.197570 5.949481 3.048010 2.020303 13.142957 -6.061836 2.095730 8.267343 0.191307 4.909226 -12.547255 1.821441 -0.027426 0.046709 -0.154450
-858.294772 947.739281 -187.503542 -88.961582 -8.727726 2.573653 -0.185674 0.155748 0.140442 0.000000 0.000000 0.000000 0.000000 0.000000 0.000000 0.000000 0.000000 0.000000 0.000000 12.665069 0.000000 0.000000 -12.665069 -0.000000 0.000000 0.000000 0.000000 -0.001230 -0.002727 80.214381 0.000000 0.000000 0.000000 -0.002003 0.001337 -0.000239 86.649637 -13.906951 -39.388418 86.683951 -24.276978 30.816070 0.000000 0.000000 0.000000 -0.001230 -0.002727 -80.213802 0.000000 -0.000000 0.000000 0.002335 -0.000589 -0.000239 2.583542 -19.820540 -9.344303 -19.831312 24.156767 -3.475387 -7.938106 -6.922459 -0.404993 -0.226633 6.327484 3.345055 2.438735 14.002096 -5.819611 1.917690 7.871212 0.355914 4.678131 -12.945992 1.617361 -0.029948 0.066641 -0.158622
-867.726393 946.606451 -188.815955 -88.886753 -8.744611 2.518161 -0.234610 0.216013 0.186842 0.000000 0.000000 0.000000 0.000000 0.000000 0.000000 0.000000 0.000000 0.000000 0.000000 12.665069 0.000000 -0.000000 -12.665069 0.000000 0.000000 0.000000 0.000000 -0.001333 -0.002466 80.213994 0.000000 -0.000000 0.000000 -0.001783 0.001399 0.000076 88.813673 -12.008555 -38.131574 87.118994 -24.370414 30.914807 0.000000 0.000000 0.000000 -0.001333 -0.002466 -80.214189 0.000000 0.000000 0.000000 0.002149 -0.000721 0.000076 1.444461 -19.576385 -8.775572 -17.899004 21.157878 -4.231056 -7.738258 -6.990017 -1.467036 -0.281098 6.648799 3.693924 2.943976 14.833756 -5.570663 1.697718 7.505732 0.512923 4.469930 -13.346685 1.395861 -0.027612 0.062873 -0.159673
-877.271269 945.364924 -190.182231 -88.769107 -8.726770 2.503408 -0.268865 0.251153 0.215055 0.000000 0.000000 0.000000 0.000000 0.000000 0.000000 0.000000 0.000000 0.000000 0.000000 12.665069 0.000000 0.000000 -12.665069 -0.000000 0.000000 0.000000 0.000000 -0.004114 -0.003041 80.212542 0.000000 0.000000 0.000000 -0.001856 0.003671 0.001240 90.906590 -10.134961 -36.774654 87.609913 -24.448388 30.963283 0.000000 0.000000 0.000000 -0.004114 -0.003041 -80.215641 0.000000 0.000000 0.000000 0.002978 -0.002837 0.001240 0.441920 -19.243013 -8.331947 -15.699418 18.201014 -4.927886 -7.456388 -6.971558 -2.442896 -0.351763 6.883748 4.033811 3.455599 15.625163 -5.330805 1.396011 7.166549 0.664828 4.225858 -13.741666 1.175674 -0.022769 0.039698 -0.161570
-886.779936 943.994997 -191.665384 -88.677100 -8.642626 2.562044 -0.258490 0.218135 0.200102 0.000000 0.000000 0.000000 0.000000 0.000000 0.000000 0.000000 0.000000 0.000000 0.000000 12.665069 0.000000 0.000000 -12.665069 -0.000000 0.000000 0.000000 0.000000 -0.005086 -0.002940 80.211176 0.000000 0.000000 0.000000 -0.001644 0.004446 0.002345 92.974802 -8.288731 -35.426187 88.149986 -24.510310 30.999873 0.000000 0.000000 0.000000 -0.005086 -0.002940 -80.217007 0.000000 -0.000000 0.000000 0.003039 -0.003639 0.002345 -0.281598 -18.899376 -8.074045 -13.459931 15.338796 -5.655956 -7.025560 -6.775657 -3.249808 -0.420273 6.946536 4.331337 3.990301 16.314222 -5.148173 1.090538 6.897028 0.814457 4.053687 -14.135817 0.937210 -0.011304 -0.015241 -0.164194
-896.145687 942.495365 -193.284079 -88.547322 -8.500460 2.670564 -0.222535 0.143751 0.168683 0.000000 0.000000 0.000000 0.000000 0.000000 0.000000 0.000000 0.000000 0.000000 0.000000 12.665069 0.000000 0.000000 -12.665069 -0.000000 0.000000 0.000000 0.000000 -0.008145 -0.003874 80.209180 0.000000 0.000000 0.000000 -0.001963 0.006993 0.003953 95.004270 -6.525641 -34.167078 88.766650 -24.540771 31.022835 0.000000 0.000000 0.000000 -0.008145 -0.003874 -80.219003 0.000000 0.000000 0.000000 0.004192 -0.005931 0.003953 -0.720305 -18.573608 -7.999936 -11.359942 12.630719 -6.428825 -6.732908 -6.451829 -3.940083 -0.464584 6.858498 4.583588 4.501538 16.899242 -4.996635 0.790010 6.705909 0.971708 3.841994 -14.546170 0.692752 0.000109 -0.082843 -0.173003
-905.313310 940.875475 -195.083645 -88.433972 -8.322854 2.831798 -0.163988 0.037383 0.116757 0.000000 0.000000 0.000000 0.000000 0.000000 0.000000 0.000000 -0.000000 -0.000000 0.000000 12.665069 0.000000 0.000000 -12.665069 -0.000000 0.000000 0.000000 0.000000 -0.008513 -0.004065 80.207595 0.000000 0.000000 0.000000 -0.002066 0.007334 0.005236 97.024655 -4.867332 -33.154755 89.445558 -24.544850 31.067048 0.000000 0.000000 0.000000 -0.008513 -0.004065 -80.220588 0.000000 0.000000 0.000000 0.004404 -0.006218 0.005236 -0.831505 -18.273640 -8.106526 -9.673235 10.077714 -7.249814 -6.448061 -6.028537 -4.524490 -0.492282 6.645119 4.747650 5.013978 17.392160 -4.887408 0.548681 6.608765 1.144253 3.636329 -14.983384 0.432955 0.010727 -0.158895 -0.191019
-914.268379 939.142750 -197.182688 -88.286163 -8.123458 3.026669 -0.091188 -0.076595 0.065781 0.000000 0.000000 0.000000 0.000000 0.000000 0.000000 -0.000000 0.000000 -0.000000 0.000000 12.665069 0.000000 -0.000000 -12.665069 -0.000000 0.000000 0.000000 0.000000 -0.010850 -0.004876 80.205535 0.000000 -0.000000 0.000000 -0.002389 0.009290 0.006898 99.016724 -3.378744 -32.489065 90.199497 -24.525751 31.039736 0.000000 0.000000 0.000000 -0.010850 -0.004876 -80.222648 0.000000 0.000000 0.000000 0.005363 -0.007953 0.006898 -0.656068 -17.994285 -8.370499 -8.570198 7.673964 -8.047601 -6.076769 -5.533058 -5.009892 -0.457703 6.303278 4.783292 5.482086 17.802718 -4.814597 0.345753 6.619808 1.343951 3.405491 -15.482323 0.164975 0.020717 -0.218363 -0.218584
-923.053166 937.310787 -199.490336 -88.144752 -7.920930 3.265403 -0.011666 -0.198100 -0.001613 0.000000 0.000000 0.000000 0.000000 0.000000 0.000000 0.000000 0.000000 0.000000 -0.000000 12.665069 -0.000000 -0.000000 -12.665069 0.000000 0.000000 0.000000 0.000000 -0.010920 -0.004682 80.204095 0.000000 0.000000 0.000000 -0.002229 0.009339 0.008066 100.969734 -2.068190 -32.362229 91.002280 -24.495516 30.976200 0.000000 0.000000 0.000000 -0.010920 -0.004682 -80.224088 0.000000 0.000000 0.000000 0.005229 -0.008052 0.008066 -0.246169 -17.751946 -8.784258 -8.282067 5.408190 -8.759593 -5.567440 -5.062822 -5.436337 -0.438668 5.939008 4.639333 5.899567 18.159623 -4.782871 0.201231 6.707075 1.554248 3.176200 -15.980599 -0.111450 0.028450 -0.299127 -0.252945
-931.776202 935.384970 -202.053187 -87.976703 -7.700404 3.549745 0.075609 -0.329723 -0.094067 0.000000 0.000000 0.000000 0.000000 0.000000 0.000000 0.000000 0.000000 0.000000 -0.000000 12.665069 -0.000000 -0.000000 -12.665069 0.000000 0.000000 0.000000 0.000000 -0.012497 -0.005137 80.202794 0.000000 0.000000 0.000000 -0.002371 0.010644 0.009119 102.770283 -0.978210 -32.687264 91.873225 -24.453285 30.776173 0.000000 0.000000 0.000000 -0.012497 -0.005137 -80.225389 0.000000 0.000000 0.000000 0.005800 -0.009235 0.009118 0.344026 -17.568723 -9.348879 -8.871760 3.318776 -9.295499 -4.761376 -4.743232 -5.702496 -0.419241 5.541288 4.205255 6.233934 18.467077 -4.810791 0.046390 6.837012 1.784866 3.044522 -16.435742 -0.413582 0.039321 -0.421652 -0.291330
